<?xml version="1.0" standalone="no"?>
<!DOCTYPE svg PUBLIC "-//W3C//DTD SVG 20010904//EN"
 "http://www.w3.org/TR/2001/REC-SVG-20010904/DTD/svg10.dtd">
<svg version="1.0" xmlns="http://www.w3.org/2000/svg"
 width="1010.000000pt" height="1010.000000pt" viewBox="0 0 1010.000000 1010.000000"
 preserveAspectRatio="xMidYMid meet">
<metadata>
Created by potrace 1.14, written by Peter Selinger 2001-2017
</metadata>
<g transform="translate(0.000000,1010.000000) scale(0.100000,-0.100000)"
fill="#000000" stroke="none">
<path d="M5295 8907 c-11 -23 -22 -44 -26 -47 -3 -3 -18 -26 -32 -52 -24 -43
-89 -156 -232 -403 -63 -109 -85 -147 -123 -215 -14 -25 -30 -48 -36 -52 -6
-4 -7 -8 -2 -8 5 0 2 -8 -6 -17 -9 -10 -17 -22 -19 -28 -10 -25 -84 -150 -91
-153 -4 -2 -8 -8 -8 -13 0 -5 -48 -91 -106 -192 -59 -100 -116 -200 -129 -222
-52 -96 -88 -155 -96 -160 -12 -8 8 -50 105 -215 15 -25 29 -53 33 -62 3 -10
9 -18 14 -18 5 0 9 -4 9 -9 0 -5 23 -49 51 -98 29 -48 62 -107 75 -130 13 -23
52 -90 87 -150 35 -59 66 -115 70 -123 4 -8 16 -28 27 -45 11 -16 23 -37 27
-45 4 -8 42 -75 85 -149 43 -73 78 -137 78 -142 0 -5 4 -9 8 -9 5 0 14 -16 22
-35 8 -19 17 -35 22 -35 4 0 8 -4 8 -9 0 -13 82 -155 92 -159 5 -2 6 -8 2 -13
-3 -5 0 -9 6 -9 6 0 8 -4 5 -10 -3 -5 -3 -10 2 -10 4 0 13 -10 19 -23 18 -38
66 -121 85 -149 11 -14 19 -29 19 -33 0 -3 16 -31 35 -61 19 -30 35 -61 35
-69 0 -8 3 -15 8 -15 4 0 19 -21 32 -47 14 -26 30 -53 37 -60 6 -7 15 -23 18
-34 4 -11 20 -40 36 -64 16 -24 29 -48 29 -54 0 -6 5 -11 10 -11 6 0 10 -9 10
-20 0 -11 5 -20 10 -20 6 0 10 -7 10 -15 0 -8 5 -15 10 -15 6 0 10 -4 10 -9 0
-6 38 -75 84 -155 46 -79 82 -147 78 -150 -3 -3 -1 -6 5 -6 6 0 26 -30 44 -66
19 -36 40 -70 46 -76 7 -6 13 -14 13 -19 0 -5 27 -54 60 -110 33 -55 60 -105
60 -110 0 -5 4 -9 8 -9 4 0 13 -12 19 -27 7 -16 24 -49 40 -75 15 -25 46 -77
67 -115 22 -37 79 -136 127 -220 49 -83 98 -168 109 -187 11 -20 28 -51 39
-68 10 -18 42 -73 70 -123 28 -49 55 -97 61 -105 14 -23 70 -119 98 -170 14
-25 36 -62 49 -82 12 -21 23 -42 23 -48 0 -5 3 -10 8 -10 4 0 15 -17 25 -37
10 -21 34 -65 54 -98 19 -33 49 -85 66 -115 17 -30 38 -66 49 -79 10 -13 18
-27 18 -31 0 -4 35 -68 78 -141 108 -184 136 -233 136 -239 0 -3 6 -11 13 -18
7 -7 13 -17 13 -21 0 -3 -421 -7 -936 -6 l-937 0 -26 -47 c-14 -26 -44 -78
-65 -115 -22 -37 -48 -84 -59 -103 -11 -19 -22 -37 -26 -40 -3 -3 -15 -23 -26
-45 -11 -22 -22 -42 -25 -45 -3 -3 -10 -14 -16 -25 -55 -101 -78 -141 -84
-150 -4 -5 -18 -28 -30 -50 -12 -22 -64 -113 -116 -202 -52 -89 -94 -166 -94
-172 0 -5 -3 -11 -8 -13 -6 -2 -71 -110 -119 -198 -8 -14 -28 -47 -44 -75 -17
-27 -33 -58 -36 -67 -3 -10 -9 -18 -14 -18 -5 0 -9 -4 -9 -9 0 -7 -54 -104
-119 -213 l-22 -36 2811 0 c1545 0 2810 3 2810 8 0 4 -8 18 -17 31 -10 13 -23
33 -29 44 -15 27 -58 106 -75 136 -8 13 -16 26 -19 29 -3 3 -15 23 -27 45 -35
66 -58 106 -112 197 -28 48 -51 91 -51 97 0 5 -4 11 -8 13 -5 2 -28 39 -52 83
-24 44 -46 82 -49 85 -4 3 -12 16 -19 30 -7 14 -26 48 -42 75 -17 28 -33 58
-36 68 -4 9 -11 17 -17 17 -6 0 -7 3 -4 6 4 4 -2 19 -13 34 -11 16 -20 31 -20
34 0 4 -5 12 -10 19 -18 21 -250 427 -250 437 0 6 -4 10 -9 10 -5 0 -11 8 -14
18 -4 9 -20 40 -37 67 -17 28 -33 58 -37 68 -3 9 -9 17 -14 17 -5 0 -9 5 -9
11 0 9 -62 120 -100 179 -6 8 -18 32 -27 53 -10 20 -21 37 -25 37 -5 0 -8 4
-8 9 0 5 -31 62 -70 127 -38 66 -70 124 -70 131 0 6 -3 13 -8 15 -10 4 -132
214 -132 228 0 5 -4 10 -9 10 -5 0 -11 8 -14 18 -7 18 -42 80 -88 153 -16 25
-29 51 -29 57 0 7 -4 12 -10 12 -5 0 -10 5 -10 11 0 6 -23 49 -51 97 -29 48
-61 103 -71 122 -11 19 -45 78 -76 130 -31 52 -55 99 -54 103 1 4 -5 10 -13
13 -8 4 -15 14 -15 24 0 11 -4 21 -9 24 -5 3 -18 24 -29 45 -29 55 -46 85 -52
91 -5 5 -13 19 -58 99 -14 25 -35 62 -47 81 -12 19 -25 42 -28 50 -4 8 -18 33
-32 55 -14 22 -30 52 -37 68 -7 15 -16 27 -20 27 -4 0 -8 4 -8 10 0 8 -70 134
-100 180 -5 8 -22 38 -37 65 -15 28 -32 58 -38 67 -10 16 -164 282 -195 337
-8 14 -27 46 -41 71 -15 25 -36 61 -47 80 -10 19 -43 76 -72 125 -29 50 -64
111 -78 137 -15 26 -29 45 -32 43 -4 -2 -7 2 -7 8 0 7 -55 110 -123 228 -68
117 -130 225 -137 239 -8 14 -25 43 -39 65 -13 22 -32 56 -42 75 -9 19 -19 37
-22 40 -11 10 -130 222 -130 231 0 5 -4 9 -9 9 -5 0 -11 8 -14 18 -4 9 -18 37
-33 62 -15 25 -35 60 -45 78 -31 53 -54 93 -108 185 -28 49 -51 93 -51 98 0 5
-4 9 -10 9 -5 0 -10 4 -10 10 0 5 -26 54 -57 107 -32 54 -65 112 -73 128 -8
17 -18 32 -21 35 -3 3 -21 32 -39 65 -18 33 -41 74 -51 90 -10 17 -30 50 -44
75 -14 25 -30 52 -35 60 -5 8 -32 53 -59 100 -143 249 -201 353 -201 361 0 5
-4 9 -9 9 -5 0 -15 16 -22 35 -7 19 -17 35 -21 35 -4 0 -8 5 -8 10 0 6 -12 29
-26 51 -14 23 -37 62 -51 87 -15 26 -35 61 -45 77 -10 17 -24 41 -31 55 -27
54 -101 175 -111 182 -6 4 -8 8 -4 8 4 0 -6 21 -22 47 -17 26 -30 53 -30 60 0
7 -4 13 -10 13 -5 0 -10 6 -10 14 0 8 -3 16 -7 18 -5 2 -19 23 -32 48 -14 25
-36 64 -50 87 l-26 41 -20 -41z"/>
<path d="M2807 5539 c-26 -45 -47 -85 -47 -90 0 -5 -4 -9 -10 -9 -5 0 -10 -4
-10 -9 0 -5 -37 -72 -82 -150 -46 -78 -92 -158 -103 -179 -11 -20 -22 -39 -25
-42 -5 -5 -15 -23 -51 -88 -11 -20 -29 -50 -40 -67 -10 -16 -22 -37 -26 -45
-3 -8 -33 -59 -65 -112 -32 -54 -58 -99 -58 -102 0 -2 -18 -34 -41 -71 -22
-37 -50 -84 -61 -104 -11 -20 -62 -108 -113 -196 -93 -161 -137 -241 -171
-305 -11 -19 -21 -37 -24 -40 -9 -9 -30 -45 -41 -70 -5 -13 -13 -27 -17 -30
-4 -3 -20 -30 -36 -60 -16 -30 -33 -57 -37 -60 -4 -3 -12 -17 -18 -30 -6 -14
-24 -47 -41 -75 -17 -27 -36 -62 -42 -77 -7 -16 -16 -28 -20 -28 -4 0 -8 -5
-8 -10 0 -6 -11 -29 -26 -51 -26 -41 -32 -53 -99 -174 -21 -38 -41 -72 -44
-75 -3 -3 -17 -25 -30 -50 -14 -25 -42 -74 -63 -109 -21 -34 -38 -67 -38 -72
0 -5 -4 -9 -10 -9 -5 0 -10 -4 -10 -10 0 -5 -30 -62 -67 -125 -101 -172 -132
-227 -146 -255 -6 -14 -14 -27 -17 -30 -11 -10 -61 -100 -55 -100 3 0 -3 -10
-15 -22 -11 -12 -20 -26 -20 -30 0 -5 -17 -37 -39 -71 -31 -51 -121 -205 -221
-381 -9 -17 -31 -55 -49 -84 -17 -29 -31 -57 -31 -62 0 -6 -4 -10 -10 -10 -5
0 -10 -6 -10 -13 0 -8 -9 -24 -20 -37 -11 -13 -20 -26 -20 -30 0 -4 -23 -47
-51 -96 -29 -49 -65 -114 -82 -144 -17 -30 -33 -57 -36 -60 -3 -3 -13 -18 -21
-35 -8 -16 -18 -32 -21 -35 -3 -3 -12 -18 -21 -35 -33 -65 -53 -100 -60 -103
-5 -2 -8 -7 -8 -12 0 -5 -38 -74 -85 -155 -47 -80 -85 -150 -85 -156 0 -5 -4
-9 -10 -9 -5 0 -10 -4 -10 -9 0 -6 358 -9 920 -9 l920 0 18 27 c25 39 118 198
195 336 12 22 25 41 30 43 4 2 7 8 7 13 0 5 18 39 40 75 22 36 40 68 40 69 0
2 33 59 73 127 39 68 79 137 87 153 8 17 17 32 20 35 11 11 31 46 41 73 6 15
15 27 20 27 5 0 9 4 9 9 0 9 91 173 100 181 4 3 17 25 29 50 12 25 35 66 51
92 15 25 40 68 55 95 15 26 42 73 60 103 18 30 36 65 40 78 3 12 10 22 15 22
4 0 11 8 14 18 3 9 12 26 19 37 43 69 87 147 87 154 0 4 9 18 20 31 11 13 20
29 20 37 0 7 3 13 8 13 4 0 12 10 18 23 5 12 81 146 169 297 198 343 193 336
224 390 13 25 27 47 30 50 3 3 14 21 23 40 18 38 50 92 58 100 9 9 39 64 56
103 9 20 20 37 24 37 4 0 13 12 19 28 6 15 21 45 34 67 13 22 40 67 60 100
l35 59 -27 51 c-15 27 -34 61 -43 75 -18 28 -69 118 -95 168 -9 17 -20 32 -25
32 -4 0 -8 7 -8 15 0 14 -26 61 -78 141 -6 10 -16 29 -21 41 -6 11 -15 24 -20
28 -6 3 -11 13 -11 21 0 8 -5 20 -11 27 -14 16 -108 177 -103 177 2 0 -7 16
-21 35 -13 20 -30 49 -37 65 -7 17 -16 30 -20 30 -5 0 -8 4 -8 9 0 4 -23 48
-51 97 -29 49 -59 103 -69 119 -9 17 -49 86 -89 153 -39 68 -71 127 -71 132 0
6 -4 10 -9 10 -5 0 -11 8 -15 18 -8 25 -65 125 -79 139 -10 10 -22 -4 -60 -68z"/>
</g>
</svg>
