<?xml version="1.0" encoding="utf-8"?>
<!-- Generator: Adobe Illustrator 27.7.0, SVG Export Plug-In . SVG Version: 6.00 Build 0)  -->
<svg version="1.1" id="Calque_1" xmlns="http://www.w3.org/2000/svg" xmlns:xlink="http://www.w3.org/1999/xlink" x="0px" y="0px"
	 viewBox="0 0 505.18 429.18" style="enable-background:new 0 0 505.18 429.18;" xml:space="preserve">
<style type="text/css">
	.st0{fill:#871811;}
	.st1{fill:#1E2D55;}
	.st2{fill:#0B0C0C;}
	.st3{fill:#FFFFFF;}
	.st4{fill:#1F3C90;}
	.st5{fill:#005799;}
	.st6{fill:#357DC1;}
	.st7{fill:#00B5ED;}
	.st8{fill:#9DD7EE;}
	.st9{fill:#2C5AA6;}
	.st10{fill:#2A4D9C;}
	.st11{fill:#256EB6;}
	.st12{fill:#00A4DF;}
	.st13{fill:#50C2E9;}
	.st14{fill:#C6E7F6;}
	.st15{fill:#BC2722;}
	.st16{fill:#E06B72;}
	.st17{fill:#DE4243;}
	.st18{fill:#F7BDC3;}
	.st19{fill:#696969;}
	.st20{fill:#121427;}
	.st21{fill:#1D3866;}
	.st22{fill:#142037;}
	.st23{fill:#395E97;}
	.st24{fill:#888989;}
	.st25{fill:#D1D0D1;}
	.st26{fill:#AFAFAF;}
	.st27{fill:#491311;}
	.st28{fill:#D3111E;}
	.st29{fill:#E40522;}
	.st30{fill:#EA505E;}
	.st31{fill:#F6B8C8;}
	.st32{fill:#A11F20;}
	.st33{fill:#701513;}
	.st34{fill:#C51617;}
	.st35{fill:#E62A3B;}
	.st36{fill:#EF8085;}
	.st37{fill:#FCE3EB;}
</style>
	<g>
	<polygon class="st0" points="50.59,345.63 73.68,385.61 96.76,425.6 50.59,425.6 4.43,425.6 27.51,385.61 	"/>
		<polygon class="st5" points="453.51,344.41 476.95,385 500.38,425.6 453.51,425.6 406.64,425.6 430.07,385 	"/>
		<polygon class="st6" points="406.64,263.22 430.07,303.81 453.51,344.41 406.64,344.41 359.76,344.41 383.2,303.81 	"/>
		<polygon class="st7" points="359.76,182.03 383.2,222.63 406.64,263.22 359.76,263.22 312.89,263.22 336.33,222.63 	"/>
		<polygon class="st8" points="312.89,100.85 336.33,141.44 359.76,182.03 312.89,182.03 266.02,182.03 289.45,141.44 	"/>
		<polygon class="st3" points="266.02,19.66 289.45,60.25 312.89,100.85 266.02,100.85 219.14,100.85 242.58,60.25 	"/>
		<polygon class="st9" points="359.76,344.41 383.2,385 406.64,425.6 359.76,425.6 312.89,425.6 336.33,385 	"/>
		<polygon class="st10" points="312.89,425.6 289.45,385 266.02,344.41 312.89,344.41 359.76,344.41 336.33,385 	"/>
		<polygon class="st11" points="406.64,425.6 383.2,385 359.76,344.41 406.64,344.41 453.51,344.41 430.07,385 	"/>
		<polygon class="st12" points="359.76,344.41 336.33,303.81 312.89,263.22 359.76,263.22 406.64,263.22 383.2,303.81 	"/>
		<polygon class="st13" points="312.89,263.22 289.45,222.63 266.02,182.03 312.89,182.03 359.76,182.03 336.33,222.63 	"/>
		<polygon class="st14" points="266.02,182.03 242.58,141.44 219.14,100.85 266.02,100.85 312.89,100.85 289.45,141.44 	"/>
		<polygon class="st15" points="50.59,345.7 96.72,345.68 142.86,345.66 119.81,385.63 96.76,425.6 73.67,385.65 	"/>
		<polygon class="st16" points="96.72,265.75 142.86,265.73 189,265.71 165.95,305.67 142.9,345.64 119.81,305.7 	"/>
		<polygon class="st17" points="96.83,265.69 73.71,305.62 50.59,345.54 96.72,345.6 142.86,345.66 119.84,305.67 	"/>
		<polygon class="st18" points="142.96,185.74 119.84,225.67 96.72,265.6 142.86,265.66 189,265.72 165.98,225.73 	"/>
		<polygon class="st4" points="266.02,344.41 289.45,385 312.89,425.6 266.02,425.6 219.14,425.6 242.58,385 	"/>
</g>
</svg>
